<svg width="9" height="9" viewBox="0 0 9 9" fill="none" xmlns="http://www.w3.org/2000/svg">
<g clip-path="url(#clip0_5_2)">
<rect width="9" height="9" rx="3" fill="black"/>
<path d="M2.07331 6.38998L3.01531 5.12998C3.02731 5.11398 3.03931 5.09998 3.05131 5.08798C3.06331 5.07198 3.07331 5.05598 3.08131 5.03998H-3.52469V4.19998H3.06931C3.06131 4.18798 3.05331 4.17598 3.04531 4.16398C3.03331 4.14798 3.02131 4.13198 3.00931 4.11598L2.07331 2.84998H3.13531L4.45531 4.61998L3.12931 6.38998H2.07331ZM3.99331 6.38998L4.93531 5.12998C5.05931 4.96598 5.15331 4.84598 5.21731 4.76998C5.28531 4.68998 5.32731 4.64398 5.34331 4.63198C5.32731 4.61998 5.28531 4.57198 5.21731 4.48798C5.14931 4.40398 5.05331 4.27998 4.92931 4.11598L3.99331 2.84998H5.05531L6.37531 4.61998L5.04931 6.38998H3.99331Z" fill="white"/>
</g>
<defs>
<clipPath id="clip0_5_2">
<rect width="9" height="9" fill="white"/>
</clipPath>
</defs>
</svg>
